<svg id="mercedes" xmlns="http://www.w3.org/2000/svg" width="117.71" height="28" viewBox="0 0 117.71 28"><title>mercedes</title><path id="logo" d="M25.28,20.12l-9-7.59-2-11.13A12.67,12.67,0,0,1,26.89,14a12.44,12.44,0,0,1-1.61,6.12Zm-.13.23.07-.11h0l-.07.11Zm-11,6.26A12.78,12.78,0,0,1,3.22,20.49l10.63-4.12,11.23,4.11A12.77,12.77,0,0,1,14.15,26.61ZM3.06,20.21h0l.07.12h0l-.07-.12ZM13.85,1.4,12.13,12.53,3,20.09A12.44,12.44,0,0,1,1.41,14,12.66,12.66,0,0,1,13.85,1.4Zm.3,0h0Zm0-1.39A14.07,14.07,0,0,0,0,14,14.07,14.07,0,0,0,14.15,28,14.08,14.08,0,0,0,28.3,14,14.08,14.08,0,0,0,14.15,0ZM88.28,16.05v-.72h3.06v.72ZM37.44,11l-.28,7.15v.12c0,.61.18.73,1.14.8v.33c-.7-.05-1-.07-1.35-.07s-.66,0-1.37.07v-.33c1-.07,1.1-.18,1.12-.92L37,11.4v-.09c0-.63-.19-.77-1.14-.82v-.35A10.07,10.07,0,0,0,37,10.2a11.4,11.4,0,0,0,1.29-.07l2.55,7,2.58-7c.62,0,.91.07,1.32.07s.56,0,1.08-.06v.35c-.93,0-1.14.19-1.14.81v.1l.15,6.76c0,.74.13.85,1.12.92v.33a13.35,13.35,0,0,0-3.42,0v-.33c.93,0,1.14-.2,1.14-.85v-.07L43.52,11l-2.26,6.14-.16.46-.2.51-.17.52-.15.45h-.21l-.15-.44L40,18.13l-.19-.54-.17-.48L37.44,11Zm12.05,8.06c-1.24,0-1.79-1-1.8-3.11h4.07c0-2.12-.89-3.25-2.5-3.25S46.59,14,46.59,16.16s1,3.36,2.79,3.36a2.31,2.31,0,0,0,2.39-2.25h-.54c-.16,1.17-.76,1.8-1.74,1.8Zm-1.78-3.61c.14-1.58.66-2.4,1.54-2.4s1.34.78,1.42,2.4Zm4.87-2.24V13a8.32,8.32,0,0,0,1.81-.32c.07.51.09.73.12,1.14v.15a1.72,1.72,0,0,1,1.6-1.23,1.11,1.11,0,0,1,1.19,1.12.58.58,0,0,1-.57.65.51.51,0,0,1-.57-.47s0-.08,0-.13l0-.14v-.12c0-.2-.17-.33-.42-.33-.71,0-1.16.87-1.16,2.23V18.4c0,.59.14.7,1,.74v.28a13,13,0,0,0-3,0v-.28c.83,0,1-.15,1-.74V13.89c0-.59-.09-.66-.8-.67Zm10-.64v2.28h-.3c-.24-1.2-.75-1.78-1.59-1.78-1,0-1.62,1.12-1.62,3.08s.53,2.91,1.59,2.91c.84,0,1.35-.6,1.52-1.82h.56c-.18,1.47-1,2.27-2.19,2.27-1.59,0-2.67-1.35-2.67-3.36s1.1-3.45,2.71-3.45a1.77,1.77,0,0,1,1.4.58l.37-.71Zm4,6.49c-1.25,0-1.8-1-1.81-3.11h4.08c0-2.12-.89-3.25-2.51-3.25S63.65,14,63.65,16.16s1,3.36,2.79,3.36a2.31,2.31,0,0,0,2.4-2.25h-.55c-.16,1.17-.76,1.8-1.73,1.8Zm-1.78-3.61c.14-1.58.66-2.4,1.54-2.4s1.34.78,1.42,2.4ZM75.19,18V10a12.06,12.06,0,0,1-2.07.38v.23c.87,0,1,.1,1,.81v2.41c-.51-.82-.91-1.07-1.65-1.07C71,12.79,70,14.18,70,16.16S71,19.54,72.5,19.54a1.76,1.76,0,0,0,1.69-1.13,5.19,5.19,0,0,0,.2,1.1A6.87,6.87,0,0,1,76,19.18l.21,0v-.24c-.92,0-1-.1-1-.94Zm-2.57,1.17c-1,0-1.5-1-1.5-3s.48-3,1.46-3,1.54,1.05,1.54,3.08-.52,2.9-1.5,2.9Zm7-.08c-1.25,0-1.8-1-1.81-3.11h4.08c0-2.12-.89-3.25-2.51-3.25S76.7,14,76.7,16.16s1,3.36,2.79,3.36a2.31,2.31,0,0,0,2.4-2.25h-.55c-.16,1.17-.76,1.8-1.73,1.8Zm-1.78-3.61c.13-1.58.66-2.4,1.54-2.4s1.34.78,1.42,2.4ZM83,19.54v-2.3l.3,0c.25,1.26.82,1.86,1.78,1.86a1.3,1.3,0,0,0,1.41-1.24c0-.47-.25-.78-.92-1.08l-.52-.23-.63-.3c-1-.47-1.32-.85-1.32-1.65a1.87,1.87,0,0,1,2-1.83,2.35,2.35,0,0,1,1.4.44l.23-.56h.25v2.13h-.32c-.12-1.1-.58-1.63-1.44-1.63A1.21,1.21,0,0,0,84,14.28c0,.55.21.73,1.45,1.28l.58.25c1,.45,1.41.89,1.41,1.7a2,2,0,0,1-2.21,2,2.46,2.46,0,0,1-1.64-.58l-.33.62ZM97.8,12.43A2.16,2.16,0,0,0,97,10.68a3,3,0,0,0-1.89-.49h-3.6v.34c1,.06,1.12.17,1.12.91v6.68c0,.74-.1.84-1.12.92v.33H95a3.62,3.62,0,0,0,2.14-.48,2.59,2.59,0,0,0,1.14-2.15,2.3,2.3,0,0,0-.85-1.83,2.45,2.45,0,0,0-1.08-.44,2.07,2.07,0,0,0,1.5-2Zm-4-1.81h1.16c1.15,0,1.66.56,1.66,1.84a2.13,2.13,0,0,1-.45,1.45c-.3.35-.67.46-1.44.46h-.93V10.62Zm1.3,4.17a1.83,1.83,0,0,1,1.45.44A2.27,2.27,0,0,1,97,16.8c0,1.38-.68,2.15-1.9,2.15h-.49c-.72,0-.85-.11-.85-.72V14.79Zm7.17,4.28c-1.25,0-1.79-1-1.81-3.11h4.08c0-2.12-.89-3.25-2.51-3.25S99.34,14,99.34,16.16s1,3.36,2.79,3.36a2.31,2.31,0,0,0,2.39-2.25H104c-.16,1.17-.76,1.8-1.73,1.8Zm-1.78-3.61c.14-1.58.66-2.4,1.54-2.4s1.34.78,1.42,2.4Zm4.77-2.19V13a8.57,8.57,0,0,0,1.81-.41,7.48,7.48,0,0,1,.14,1.2A2.05,2.05,0,0,1,109,12.75a1.91,1.91,0,0,1,1.81,1.1,3.31,3.31,0,0,1,.2,1.24V18.4c0,.59.14.7,1,.74v.28a13.09,13.09,0,0,0-1.49-.09,12.72,12.72,0,0,0-1.49.09v-.28c.74,0,.91-.17.91-.72V15.05c0-1.2-.35-1.68-1.22-1.68s-1.43.6-1.43,1.73v3.33c0,.55.18.69.89.72v.27a12.32,12.32,0,0,0-1.47-.08c-.48,0-.77,0-1.48.08v-.27c.84,0,1-.16,1-.75V13.94c0-.57-.09-.65-.77-.65l-.2,0Zm7.31,6.1,3.71-6.14h-1.69c-.89,0-1.11.2-1.59,1.43h-.28l.32-1.78h4.7L114,19h1.6c.93,0,1.31-.38,1.72-1.63h.29l-.35,2Z" style="fill:#a1a7b3;fill-rule:evenodd"/></svg>