<svg id="pinterest" xmlns="http://www.w3.org/2000/svg" width="114.16" height="27.28" viewBox="0 0 114.16 27.28"><title>pinterest</title><g id="g22"><path id="path24" d="M49.43,10.08h3.48v1.55H53a4,4,0,0,1,3.5-1.89c2.48,0,4,1.78,4,4.3v7.39H56.81V14.78c0-1.2-.6-2-1.77-2a2.12,2.12,0,0,0-2,2.39v6.28H49.43Z" transform="translate(-0.12 -0.34)" style="fill:#a1a7b3"/></g><g id="g26"><path id="path28" d="M49,7a2.17,2.17,0,1,0-2.17,2.17A2.17,2.17,0,0,0,49,7" transform="translate(-0.12 -0.34)" style="fill:#a1a7b3"/></g><g id="g30"><path id="path32" d="M85.84,9.91h-.36a3.36,3.36,0,0,0-3.11,1.95h-.06V10.08H78.85V21.43h3.61v-5.1c0-2.36,1.31-3.46,3.38-3.27Z" transform="translate(-0.12 -0.34)" style="fill:#a1a7b3"/></g><g id="g34"><path id="path36" d="M103.57,14.27c-1.44-.27-2.73-.38-2.73-1.18s.69-1,1.57-1,1.69.31,1.82,1.33h3.33c-.18-2.24-1.91-3.64-5.12-3.64-2.69,0-4.9,1.25-4.9,3.64,0,2.66,2.1,3.19,4.08,3.52,1.5.27,2.88.38,2.88,1.4,0,.73-.69,1.13-1.77,1.13a1.84,1.84,0,0,1-2-1.4H97.25c.25,2.34,2.3,3.75,5.5,3.75,3,0,5.16-1.29,5.16-3.77,0-2.9-2.35-3.41-4.34-3.74" transform="translate(-0.12 -0.34)" style="fill:#a1a7b3"/></g><g id="g38"><path id="path40" d="M91.44,12.32a2.18,2.18,0,0,1,2.15,2.21H89.11c.25-1.35,1-2.21,2.33-2.21m.2,6.84a2.5,2.5,0,0,1-2.55-2.48h8.16a7.21,7.21,0,0,0-2-5.52,5.6,5.6,0,0,0-3.88-1.42,5.71,5.71,0,0,0-5.82,6,5.74,5.74,0,0,0,6,6,6,6,0,0,0,3.54-1A4.62,4.62,0,0,0,97.05,18H93.53a1.9,1.9,0,0,1-1.89,1.13" transform="translate(-0.12 -0.34)" style="fill:#a1a7b3"/></g><g id="g42"><path id="path44" d="M114.28,18.75l-.6,0c-.78,0-1.27-.23-1.27-1.11V12.34h1.87V10.08h-1.87V6.49h-3.52v3.59h-1.11v2.26h1.11v6.09c0,2.44,1.51,3.13,3.61,3.13a10.1,10.1,0,0,0,1.78-.13Z" transform="translate(-0.12 -0.34)" style="fill:#a1a7b3"/></g><g id="g46"><path id="path48" d="M66.88,18.75l-.47,0c-.77,0-1.26-.23-1.26-1.11V12.34h1.73V10.08H65.15V6.49H61.62v3.59H60.45v2.26h1.17v6.09c0,2.44,1.51,3.13,3.62,3.13a10.66,10.66,0,0,0,1.64-.11Z" transform="translate(-0.12 -0.34)" style="fill:#a1a7b3"/></g><g id="g50"><path id="path52" d="M74.75,14.53a2.2,2.2,0,0,0-2.15-2.21c-1.38,0-2.09.86-2.33,2.21Zm-8,1.2a5.72,5.72,0,0,1,5.83-6,5.62,5.62,0,0,1,3.88,1.42,7.25,7.25,0,0,1,2,5.52H70.25a2.5,2.5,0,0,0,2.55,2.48A1.88,1.88,0,0,0,74.68,18h3.53a4.67,4.67,0,0,1-1.91,2.69,6,6,0,0,1-3.55,1A5.75,5.75,0,0,1,66.7,15.73Z" transform="translate(-0.12 -0.34)" style="fill:#a1a7b3"/></g><g id="g54"><path id="path56" d="M38.79,13A2,2,0,0,0,41,10.92a2,2,0,0,0-2.22-2H36V13ZM32.36,5.58h6.27A6,6,0,0,1,43,7a5.2,5.2,0,0,1,1.59,3.9,5,5,0,0,1-5.36,5.19H36v5.3H32.36Z" transform="translate(-0.12 -0.34)" style="fill:#a1a7b3"/></g><polygon id="path12" points="44.95 9.74 48.56 9.74 48.56 21.09 44.95 21.09 44.95 9.74" style="fill:#a1a7b3"/><g id="g58"><path id="path60" d="M27.4,14A13.64,13.64,0,1,1,13.76.34,13.64,13.64,0,0,1,27.4,14" transform="translate(-0.12 -0.34)" style="fill:#fff"/></g><g id="g62"><path id="path64" d="M13.76.34a13.64,13.64,0,0,0-5,26.34,13.17,13.17,0,0,1,0-3.91c.25-1.07,1.6-6.78,1.6-6.78a5,5,0,0,1-.4-2c0-1.9,1.1-3.31,2.46-3.31a1.71,1.71,0,0,1,1.73,1.92c0,1.17-.74,2.92-1.13,4.54a2,2,0,0,0,2,2.47c2.43,0,4.29-2.56,4.29-6.25a5.39,5.39,0,0,0-5.7-5.55A5.91,5.91,0,0,0,7.54,13.7a5.25,5.25,0,0,0,1,3.11.42.42,0,0,1,.09.39c-.1.44-.33,1.36-.38,1.55s-.2.3-.45.18c-1.71-.79-2.77-3.28-2.77-5.28,0-4.3,3.12-8.26,9-8.26,4.73,0,8.41,3.38,8.41,7.88,0,4.7-3,8.49-7.08,8.49a3.63,3.63,0,0,1-3.12-1.57s-.69,2.61-.85,3.24A15.19,15.19,0,0,1,9.72,27a13.49,13.49,0,0,0,4,.61,13.64,13.64,0,0,0,0-27.28" transform="translate(-0.12 -0.34)" style="fill:#a1a7b3"/></g></svg>